<svg xmlns="http://www.w3.org/2000/svg" width="85.645" height="10.348" viewBox="0 0 85.645 10.348">
  <g id="washow_BI" data-name="washow BI" transform="translate(-672.4 -505.2)">
    <g id="그룹_1" data-name="그룹 1" transform="translate(672.4 505.364)">
      <path id="패스_1" data-name="패스 1" d="M679.4,506.3h.432l3.067,9.157,3.112-9.157h.834l-3.529,10.051h-.849l-1.593-4.69-1.266-3.961-1.266,3.931-1.608,4.72H675.9L672.4,506.3h.819l3.1,9.157Z" transform="translate(-672.4 -506.3)" fill="#393535"/>
      <path id="패스_2" data-name="패스 2" d="M784.208,516.321l-1.1-2.457h-5.986l-1.087,2.457H775.2l4.5-10.021h.849l4.5,10.021Zm-1.4-3.171-2.7-6.09-2.7,6.09Z" transform="translate(-759.893 -506.3)" fill="#393535"/>
    </g>
    <g id="그룹_2" data-name="그룹 2" transform="translate(706.631 505.2)">
      <path id="패스_3" data-name="패스 3" d="M909.447,507.47a3.24,3.24,0,0,0-3.038-1.355c-1.176,0-3.037.432-3.037,2.025,0,1.266,1.37,1.578,3.067,1.891,1.936.372,3.931.715,3.931,2.874-.015,2.263-2.293,2.8-3.961,2.8a4.5,4.5,0,0,1-4.109-2.174l.685-.342A3.909,3.909,0,0,0,906.41,515c1.236,0,3.186-.342,3.186-2.114.015-1.5-1.638-1.831-3.291-2.144-1.831-.357-3.708-.73-3.708-2.576-.045-2.114,2.159-2.77,3.812-2.77a3.843,3.843,0,0,1,3.663,1.7Z" transform="translate(-902.3 -505.37)" fill="#393535"/>
      <path id="패스_4" data-name="패스 4" d="M990.147,516.321v-4.556h-6.388v4.556H983V506.3h.774v4.765h6.388V506.3h.774v10.021Z" transform="translate(-970.984 -506.136)" fill="#393535"/>
      <path id="패스_5" data-name="패스 5" d="M1073.7,510.382a5.049,5.049,0,1,1-10.1-.03,5.049,5.049,0,1,1,10.1.03Zm-9.351,0a4.3,4.3,0,1,0,8.591,0,4.159,4.159,0,0,0-4.3-4.452A4.116,4.116,0,0,0,1064.344,510.382Z" transform="translate(-1039.583 -505.2)" fill="#393535"/>
      <path id="패스_6" data-name="패스 6" d="M1157.683,506.3h.432l3.067,9.157,3.112-9.157h.834l-3.529,10.051h-.834l-1.593-4.69-1.266-3.961-1.266,3.931-1.608,4.72h-.834l-3.5-10.051h.819l3.1,9.157Z" transform="translate(-1113.714 -506.136)" fill="#393535"/>
    </g>
    <circle id="타원_1" data-name="타원 1" cx="0.462" cy="0.462" r="0.462" transform="translate(701.584 506.421)" fill="#393535"/>
    <circle id="타원_2" data-name="타원 2" cx="0.462" cy="0.462" r="0.462" transform="translate(701.584 513.583)" fill="#393535"/>
  </g>
</svg>
