<svg xmlns="http://www.w3.org/2000/svg" xmlns:xlink="http://www.w3.org/1999/xlink" width="300" height="104" viewBox="0 0 300 104">
  <defs>
    <clipPath id="clip-path">
      <rect id="사각형_250" data-name="사각형 250" width="300" height="104" rx="4" transform="translate(30 533)" fill="#334150"/>
    </clipPath>
  </defs>
  <g id="마스크_그룹_14" data-name="마스크 그룹 14" transform="translate(-30 -533)" clip-path="url(#clip-path)">
    <g id="그룹_296" data-name="그룹 296" transform="translate(-1076.155 310.496)">
      <g id="카카오톡" transform="translate(1320.531 248.495)">
        <path id="패스_580" data-name="패스 580" d="M32.8,36c-4.861,0-8.8,3.107-8.8,6.94a6.767,6.767,0,0,0,4.126,5.88c-.135.465-.866,2.991-.9,3.19,0,0-.018.149.079.206a.266.266,0,0,0,.21.013c.277-.039,3.211-2.1,3.719-2.458a11.15,11.15,0,0,0,1.563.109c4.861,0,8.8-3.107,8.8-6.94S37.663,36,32.8,36Z" transform="translate(-24 -36)" fill="#fff"/>
        <path id="패스_581" data-name="패스 581" d="M51.048,98a.5.5,0,0,1-.508-.485V94.494h-.792a.5.5,0,1,1,0-.994h2.6a.5.5,0,1,1,0,.994h-.792v3.017A.5.5,0,0,1,51.048,98Zm4.453-.007a.417.417,0,0,1-.423-.224l-.251-.658H53.279l-.252.659a.416.416,0,0,1-.422.224.775.775,0,0,1-.323-.07c-.14-.065-.275-.242-.12-.721L53.376,94a.707.707,0,0,1,1.353,0l1.214,3.2c.155.48.02.658-.12.722a.777.777,0,0,1-.323.07Zm-.941-1.782-.507-1.441-.507,1.441H54.56Zm2.2,1.715a.477.477,0,0,1-.487-.465V94.008a.518.518,0,0,1,1.037,0v2.983H58.39a.466.466,0,1,1,0,.931Zm2.821.067a.508.508,0,0,1-.508-.508V94.008a.508.508,0,1,1,1.016,0V95.1l1.417-1.417a.394.394,0,0,1,.282-.113.514.514,0,0,1,.5.472.4.4,0,0,1-.112.309l-1.157,1.157,1.25,1.656a.508.508,0,0,1-.811.612L60.266,96.2l-.176.176v1.108A.509.509,0,0,1,59.582,97.989Z" transform="translate(-47.113 -88.634)" fill="#393535"/>
      </g>
      <g id="A-Human_Standing" data-name="A-Human/Standing" transform="translate(1328.203 260.93)">
        <g id="Bottom_Standing_Skirt" data-name="Bottom/Standing/Skirt" transform="translate(9.064 59.216)">
          <path id="Skirt-Shadow" d="M162.79,91.643q-21.274,5.95-36.709,5.95A49.383,49.383,0,0,1,97.408,88.43q20.819-6.107,34.29-6.107T162.79,91.643Z" transform="translate(-97.408 -30.793)" fill="#131212" fill-rule="evenodd"/>
          <path id="Skirt" d="M147.44-1.978q-19.995-5.721-37.837,0C105.465,16.9,95.409,24.4,93.64,53.346c20.1,9.988,44.932-7.123,65.624,2.617C165.176,42.339,156.9,9.53,147.44-1.978Z" transform="translate(-93.64 4.838)" fill="#393535" fill-rule="evenodd"/>
        </g>
        <g id="Body_Long-Sleeve" data-name="Body/Long-Sleeve" transform="translate(0)">
          <path id="패스_606" data-name="패스 606" d="M135.759,8.71s-8.221,25.756-17.564,21.085c-9.9,11.585-15.7,15.322-15.7,15.322s22.983,32.326,39.8-20.554C151.268,13.538,135.759,8.71,135.759,8.71Z" transform="translate(-102.499 -4.702)" fill="#afb9c5"/>
          <path id="Clothes" d="M70.489.009,55.131,3.527c0,26.414-8.414,43.267-12.73,62.688H83.878c.584,6.711.943,13.608,1.13,20.692h31.056Q105.508,30.74,71.5,0H70.5Z" transform="translate(-22.105)" fill="#c5cfd6" fill-rule="evenodd"/>
          <path id="Shade" d="M98.73,48.259q1.6,24.69-1.886,37.684h8.43A203.124,203.124,0,0,0,98.73,48.259Z" transform="translate(-43.5 -19.728)" fill="rgba(0,0,0,0.1)" fill-rule="evenodd"/>
        </g>
      </g>
      <g id="Phone" transform="translate(1315.183 267.002)">
        <path id="패스_468" data-name="패스 468" d="M325.844,477.438l-.269.183a1.077,1.077,0,0,0,.279-1.524l-12.113-17.549a1.072,1.072,0,0,0-1.5-.274l.269-.188a1.733,1.733,0,0,0-.442,2.408l11.366,16.5A1.738,1.738,0,0,0,325.844,477.438Z" transform="translate(-311.764 -457.65)" fill="#393535"/>
        <path id="패스_469" data-name="패스 469" d="M.884,23.5h.249V0H.884A.884.884,0,0,0,0,.884V22.615a.884.884,0,0,0,.884.884Z" transform="translate(14.68 19.356) rotate(145.44)" fill="#fff"/>
        <rect id="사각형_64" data-name="사각형 64" width="0.218" height="1.915" rx="0.109" transform="translate(3.312 4.649) rotate(145.44)" fill="#393535"/>
      </g>
      <g id="A-Human_Standing-2" data-name="A-Human/Standing" transform="translate(1323.794 222.312)">
        <g id="Head_" data-name="Head\" transform="translate(18.344 5.231) rotate(-7)">
          <path id="Combined-Shape" d="M42.524,0,.707,5.053Q-2.385,21.47,8.043,25.74c3.214,10.53,15.723,9.674,19.268,8.815Q45.41,30.173,42.524,0Z" transform="translate(42.921 35.026) rotate(180)" fill="#393535" fill-rule="evenodd"/>
          <path id="Mask" d="M4.245,1.8V17.246C-2.2,17.342-.939,28.5,5.532,25.1c1.158-.515,4.118.9,3.089,4.376,6.95-5.148,16.634,3.887,17.246-1.673,1.2-10.942-1.125-19.936-7.3-19.937a10.135,10.135,0,0,0-1.967.117V1.8A11.722,11.722,0,0,0,10.554,0,13.131,13.131,0,0,0,4.245,1.8Z" transform="translate(32.82 42.9) rotate(180)" fill="#fdbf96" fill-rule="evenodd"/>
          <path id="Path-2" d="M8.38,1.643,8.378,0C4.517,0,2.145,1.526,0,5.215A20.537,20.537,0,0,1,8.38,1.643Z" transform="translate(24.602 36.559) rotate(180)" fill="#d1936b" fill-rule="evenodd"/>
        </g>
        <g id="Body_Long-Sleeve-2" data-name="Body/Long-Sleeve" transform="translate(0 38.618)">
          <path id="Skin" d="M27.821,10.458,14.842,10.3C10.173,12.9,6.021,13.628,2.1,14.547c-1.1.032-3.548.035-.933-2.146S6.981,8.433,6.515,7.27s-2.9-.731-3.3-2.521q-.4-1.79,11.843-.582L23.633,0Z" transform="matrix(0.407, 0.914, -0.914, 0.407, 8.296, 14.34)" fill="#fdbf96" fill-rule="evenodd"/>
          <path id="패스_606-2" data-name="패스 606" d="M135.539,7.192s-8,26.235-17.344,21.563c-9.9,11.585-15.7,15.322-15.7,15.322S125.482,76.4,142.3,23.523C151.268,12.5,135.539,7.192,135.539,7.192Z" transform="translate(-98.089 -3.663)" fill="#afb9c5"/>
          <path id="Clothes-2" data-name="Clothes" d="M70.489.009,55.131,3.527c0,26.414-8.414,43.267-12.73,62.688l28.088-8.952c.584,6.711,2.106-26.031,2.293-18.947L71.5,24.737C64.465-12.707,92.594,26.338,70.5,0Z" transform="translate(-17.695)" fill="#c5cfd6" fill-rule="evenodd"/>
        </g>
      </g>
    </g>
  </g>
</svg>
