<svg xmlns="http://www.w3.org/2000/svg" width="20.5" height="24.474" viewBox="0 0 20.5 24.474">
  <g id="_" data-name="+" transform="translate(-4.75 -2.669)">
    <path id="패스_658" data-name="패스 658" d="M19.25,9.966H21.5A2.4,2.4,0,0,1,24,12.242v12.38A2.4,2.4,0,0,1,21.5,26.9H6.5A2.4,2.4,0,0,1,4,24.622V12.242A2.4,2.4,0,0,1,6.5,9.966H8.75A1.2,1.2,0,0,1,10,11.1a1.2,1.2,0,0,1-1.25,1.138H6.5v12.38h15V12.242H19.25A1.2,1.2,0,0,1,18,11.1,1.2,1.2,0,0,1,19.25,9.966Zm-4-3.076v8.766a1.256,1.256,0,0,1-2.5,0V6.89l-1.4,1.276a1.339,1.339,0,0,1-1.768,0,1.067,1.067,0,0,1,0-1.609l3.536-3.219a1.339,1.339,0,0,1,1.768,0l3.536,3.219a1.067,1.067,0,0,1,0,1.609,1.339,1.339,0,0,1-1.768,0Z" transform="translate(1 -0.004)" fill="#334150" stroke="#fff" stroke-width="0.5"/>
  </g>
</svg>
