<svg xmlns="http://www.w3.org/2000/svg" width="30.374" height="28.194" viewBox="0 0 30.374 28.194">
  <defs>
    <style>
      .cls-1 {
        fill: none;
        stroke: #fff;
        stroke-width: 2px;
      }

      .cls-2 {
        fill: #fff;
      }
    </style>
  </defs>
  <g id="kakaotalk" transform="translate(-25 -55)">
    <path id="패스_580" data-name="패스 580" class="cls-1" d="M38.187,36C30.352,36,24,41.008,24,47.186c0,3.994,2.655,7.5,6.65,9.478-.217.749-1.4,4.821-1.443,5.141,0,0-.028.24.127.332a.428.428,0,0,0,.339.02c.446-.062,5.176-3.385,5.995-3.961a17.972,17.972,0,0,0,2.52.176c7.835,0,14.187-5.008,14.187-11.186S46.022,36,38.187,36Z" transform="translate(2 20)"/>
    <path id="패스_581" data-name="패스 581" class="cls-2" d="M52.149,100.747a.8.8,0,0,1-.818-.782V95.1H50.053a.8.8,0,1,1,0-1.6h4.191a.8.8,0,1,1,0,1.6H52.967v4.862A.8.8,0,0,1,52.149,100.747Zm7.177-.011a.672.672,0,0,1-.681-.361l-.405-1.061h-2.5l-.406,1.062a.671.671,0,0,1-.681.361,1.249,1.249,0,0,1-.52-.113c-.226-.1-.443-.39-.194-1.162L55.9,94.308a1.14,1.14,0,0,1,2.182,0L60.04,99.46c.249.774.032,1.06-.193,1.164a1.252,1.252,0,0,1-.52.113h0Zm-1.517-2.872-.818-2.322-.818,2.322Zm3.548,2.764a.769.769,0,0,1-.784-.75V94.318a.836.836,0,0,1,1.671,0v4.809h1.739a.751.751,0,1,1,0,1.5Zm4.547.109a.819.819,0,0,1-.818-.818v-5.6a.818.818,0,1,1,1.637,0v1.759l2.284-2.284a.636.636,0,0,1,.454-.182.829.829,0,0,1,.8.761.638.638,0,0,1-.181.5l-1.865,1.865L70.233,99.4a.818.818,0,0,1-1.307.986l-1.919-2.543-.284.284v1.786a.82.82,0,0,1-.819.819Z" transform="translate(-19.806 -29.656)"/>
  </g>
</svg>
