<svg xmlns="http://www.w3.org/2000/svg" width="29.44" height="23.742" viewBox="0 0 29.44 23.742">
  <defs>
    <style>
      .cls-1, .cls-2, .cls-4 {
        fill: none;
      }

      .cls-1 {
        stroke: #fff;
        stroke-width: 2px;
      }

      .cls-3, .cls-5 {
        stroke: none;
      }

      .cls-5 {
        fill: #fff;
      }
    </style>
  </defs>
  <g id="mail" transform="translate(-1404 -3649)">
    <g id="사각형_192" data-name="사각형 192" class="cls-1" transform="translate(1404 3649)">
      <rect class="cls-3" width="29.44" height="23.742" rx="5"/>
      <rect class="cls-4" x="1" y="1" width="27.44" height="21.742" rx="4"/>
    </g>
    <g id="교차_1" data-name="교차 1" class="cls-2" transform="translate(1405.184 3649)">
      <path class="cls-3" d="M10.476,12.209.759,2.493A5.018,5.018,0,0,1,.09,1.666,4.987,4.987,0,0,1,3.816,0h19.44a5,5,0,0,1,4.2,2.288q-.094.1-.194.205l-9.717,9.716a5,5,0,0,1-7.07,0Z"/>
      <path class="cls-5" d="M 14.01120185852051 11.67415523529053 C 14.81239128112793 11.67415523529053 15.56552124023438 11.36211490631104 16.13225173950195 10.79512500762939 L 24.60790061950684 2.320261716842651 C 24.1956844329834 2.11245059967041 23.7346019744873 2.00000524520874 23.25600242614746 2.00000524520874 L 3.816001415252686 2.00000524520874 C 3.595591068267822 2.00000524520874 3.377654075622559 2.024405717849731 3.165812015533447 2.071584939956665 L 11.89054107666016 10.7955150604248 C 12.45688152313232 11.36211490631104 13.21001148223877 11.67415523529053 14.01120185852051 11.67415523529053 M 14.01120185852051 13.67415523529053 C 12.73162174224854 13.67415523529053 11.45205116271973 13.18590545654297 10.47600173950195 12.20940494537354 L 0.758701503276825 2.492995262145996 C 0.5020614862442017 2.236355304718018 0.2793214619159698 1.958935260772705 0.090131476521492 1.665905237197876 C 1.005541443824768 0.6435052156448364 2.335631370544434 5.233459432929521e-06 3.816001415252686 5.233459432929521e-06 L 23.25600242614746 5.233459432929521e-06 C 25.01822090148926 5.233459432929521e-06 26.56714057922363 0.9110952615737915 27.45769119262695 2.287785291671753 C 27.39530181884766 2.357535123825073 27.33069229125977 2.426005125045776 27.26370239257813 2.492995262145996 L 17.54640197753906 12.20940494537354 C 16.57035064697266 13.18590545654297 15.290771484375 13.67415523529053 14.01120185852051 13.67415523529053 Z"/>
    </g>
  </g>
</svg>
