<svg xmlns="http://www.w3.org/2000/svg" xmlns:xlink="http://www.w3.org/1999/xlink" width="719.052" height="388.682" viewBox="0 0 719.052 388.682">
  <defs>
    <style>
      .cls-1 {
        fill: #7352ec;
      }

      .cls-2 {
        fill: #566b81;
      }

      .cls-3 {
        fill: none;
        stroke: #fff;
        stroke-miterlimit: 10;
        stroke-width: 0.75px;
        stroke-dasharray: 12;
      }

      .cls-14, .cls-4 {
        fill: #fff;
      }

      .cls-18, .cls-5 {
        fill: #393535;
      }

      .cls-6 {
        fill: #ffe812;
      }

      .cls-7 {
        fill: #344150;
      }

      .cls-8 {
        fill: #ffcdba;
      }

      .cls-8, .cls-9 {
        opacity: 0.1;
      }

      .cls-10 {
        fill: #81573e;
      }

      .cls-10, .cls-11, .cls-12, .cls-14, .cls-17, .cls-18, .cls-20, .cls-21, .cls-22, .cls-23 {
        fill-rule: evenodd;
      }

      .cls-11 {
        fill: url(#linear-gradient);
      }

      .cls-12 {
        fill: url(#linear-gradient-2);
      }

      .cls-13 {
        fill: #ffb597;
      }

      .cls-15 {
        fill: #e7effd;
      }

      .cls-16 {
        clip-path: url(#clip-path);
      }

      .cls-17 {
        fill: #131212;
      }

      .cls-19 {
        fill: #afb9c5;
      }

      .cls-20 {
        fill: #c5cfd6;
      }

      .cls-21 {
        fill: rgba(0,0,0,0.1);
      }

      .cls-22 {
        fill: #fdbf96;
      }

      .cls-23 {
        fill: #d1936b;
      }
    </style>
    <linearGradient id="linear-gradient" x1="0.5" y1="1" x2="0.5" gradientUnits="objectBoundingBox">
      <stop offset="0" stop-color="#ffc9b3"/>
      <stop offset="1" stop-color="#ffd2c2"/>
    </linearGradient>
    <linearGradient id="linear-gradient-2" x1="0.5" x2="0.5" y2="1" gradientUnits="objectBoundingBox">
      <stop offset="0" stop-color="#ffd4b3"/>
      <stop offset="1" stop-color="#ffdcc2"/>
    </linearGradient>
    <clipPath id="clip-path">
      <path id="Background" class="cls-1" d="M750.585,490.128c-7.239,18.838-22.383,35.854-38.64,51.968q-21.436,21.252-45.859,41.074-6.768,5.5-13.753,10.867l-3.235,2.469q-4.3,3.294-8.751,6.527l-.356.261q-4.315,3.178-8.707,6.293c-9.577,6.809-19.7,13.57-30.892,19.168-3.813,1.912-7.747,3.693-11.821,5.289q-3.3,1.3-6.749,2.435a118.818,118.818,0,0,1-11.662,3.2c-.674.151-1.354.3-2.034.433a124.95,124.95,0,0,1-12.539,1.871c-15.487,1.534-31.484.413-47-2.215-7.753-1.314-15.386-3.006-22.771-4.931-.909-.234-1.811-.474-2.72-.688-25.147-6.809-48.757-16.053-74.082-22.552q-13.092-3.363-26.692-5.709-6.635-1.142-13.346-2.063c-10.531-1.417-21.195-2.366-31.9-2.847-14.439-.688-29.348-.392-43.088,2.338q-2.745.544-5.421,1.224-3.394.86-6.66,1.96a113.683,113.683,0,0,0-17.089,7.614c-1.087.578-2.161,1.162-3.235,1.754h0c-3.368,1.857-6.692,3.755-10.067,5.6a122.059,122.059,0,0,1-18.9,8.68,93.97,93.97,0,0,1-10.855,3,148.151,148.151,0,0,1-30.4,2.992c-5,0-10.009-.117-14.96-.4h-.152c-1.691-.1-3.387-.206-5.084-.344-7.728-.571-15.43-1.451-23.018-2.655-26-4.127-50.657-11.926-70.492-23.825-26.94-16.149-44.048-40.228-41.48-64.287,1.843-17.332,13.289-33.426,24.15-49.183,20.2-29.341,39.129-59.348,49.087-90.979,8.077-25.675,10.486-52.821,29.075-75.9a99.625,99.625,0,0,1,22.434-20.035,139.365,139.365,0,0,1,20.769-11.362,170.032,170.032,0,0,1,25.033-8.838,185.758,185.758,0,0,1,22.446-4.567c4.105-.578,8.262-1.025,12.443-1.327q4.83-.364,9.7-.461h.5q2.981-.062,5.961,0a257.3,257.3,0,0,1,43.215,4.395c8.935,1.616,17.794,3.6,26.469,5.777q7.766,1.947,15.392,4.079c1.551.433,3.1.874,4.633,1.321,36.174,10.489,68,24.973,102.852,36.858.178.062.35.124.527.172h0a201.452,201.452,0,0,0,21.76,5.915c5.4,1.169,10.912,2.18,16.523,3.068,8.592,1.376,17.369,2.462,26.209,3.4l1.951.206c12.971,1.376,26.056,2.4,38.767,3.6,4.512.426,8.986.867,13.4,1.376q4.194.454,8.313.963c1.97.248,3.947.5,5.923.757s4.067.536,6.1.818c1.322.179,2.637.364,3.959.564,8.008,1.149,16,2.435,23.9,3.907,4.8.894,9.584,1.857,14.306,2.9q5.129,1.128,10.168,2.38,3.737.915,7.41,1.926c19.9,5.413,38.519,12.511,54.566,22.091C745.787,413.269,764.1,441.19,750.585,490.128Z" transform="translate(-35.92 -281.955)"/>
    </clipPath>
  </defs>
  <g id="main_img" data-name="main img" transform="translate(-969.556 -246.949)">
    <path id="Background-2" data-name="Background" class="cls-2" d="M750.585,490.128c-7.239,18.838-22.383,35.854-38.64,51.968q-21.436,21.252-45.859,41.074-6.768,5.5-13.753,10.867l-3.235,2.469q-4.3,3.294-8.751,6.527l-.356.261q-4.315,3.178-8.707,6.293c-9.577,6.809-19.7,13.57-30.892,19.168-3.813,1.912-7.747,3.693-11.821,5.289q-3.3,1.3-6.749,2.435a118.818,118.818,0,0,1-11.662,3.2c-.674.151-1.354.3-2.034.433a124.95,124.95,0,0,1-12.539,1.871c-15.487,1.534-31.484.413-47-2.215-7.753-1.314-15.386-3.006-22.771-4.931-.909-.234-1.811-.474-2.72-.688-25.147-6.809-48.757-16.053-74.082-22.552q-13.092-3.363-26.692-5.709-6.635-1.142-13.346-2.063c-10.531-1.417-21.195-2.366-31.9-2.847-14.439-.688-29.348-.392-43.088,2.338q-2.745.544-5.421,1.224-3.394.86-6.66,1.96a113.683,113.683,0,0,0-17.089,7.614c-1.087.578-2.161,1.162-3.235,1.754h0c-3.368,1.857-6.692,3.755-10.067,5.6a122.059,122.059,0,0,1-18.9,8.68,93.97,93.97,0,0,1-10.855,3,148.151,148.151,0,0,1-30.4,2.992c-5,0-10.009-.117-14.96-.4h-.152c-1.691-.1-3.387-.206-5.084-.344-7.728-.571-15.43-1.451-23.018-2.655-26-4.127-50.657-11.926-70.492-23.825-26.94-16.149-44.048-40.228-41.48-64.287,1.843-17.332,13.289-33.426,24.15-49.183,20.2-29.341,39.129-59.348,49.087-90.979,8.077-25.675,10.486-52.821,29.075-75.9a99.625,99.625,0,0,1,22.434-20.035,139.365,139.365,0,0,1,20.769-11.362,170.032,170.032,0,0,1,25.033-8.838,185.758,185.758,0,0,1,22.446-4.567c4.105-.578,8.262-1.025,12.443-1.327q4.83-.364,9.7-.461h.5q2.981-.062,5.961,0a257.3,257.3,0,0,1,43.215,4.395c8.935,1.616,17.794,3.6,26.469,5.777q7.766,1.947,15.392,4.079c1.551.433,3.1.874,4.633,1.321,36.174,10.489,68,24.973,102.852,36.858.178.062.35.124.527.172h0a201.452,201.452,0,0,0,21.76,5.915c5.4,1.169,10.912,2.18,16.523,3.068,8.592,1.376,17.369,2.462,26.209,3.4l1.951.206c12.971,1.376,26.056,2.4,38.767,3.6,4.512.426,8.986.867,13.4,1.376q4.194.454,8.313.963c1.97.248,3.947.5,5.923.757s4.067.536,6.1.818c1.322.179,2.637.364,3.959.564,8.008,1.149,16,2.435,23.9,3.907,4.8.894,9.584,1.857,14.306,2.9q5.129,1.128,10.168,2.38,3.737.915,7.41,1.926c19.9,5.413,38.519,12.511,54.566,22.091C745.787,413.269,764.1,441.19,750.585,490.128Z" transform="translate(933.635 -7.053)"/>
    <g id="send" transform="translate(1137.935 135.853)">
      <path id="패스_558" data-name="패스 558" class="cls-3" d="M0,0C42.963,45.534,47.456,52.6,99.5,87.391c20.96,14,43.366,27.356,68.341,30.835s53.191-5.174,66.084-26.82" transform="translate(0 285.339) rotate(-11)"/>
      <path id="패스_559" data-name="패스 559" class="cls-4" d="M30.208.007.377,10.881a.585.585,0,0,0-.114,1.036l4.453,2.47a1.128,1.128,0,0,1,.518.673l2.553,8.078c0,.342.621.518.678.186l.357-6.317a2.282,2.282,0,0,1,.689-1.186L25.905,3.911a.368.368,0,0,1,.326-.041.331.331,0,0,1,.1.549L11.759,17.711a2.8,2.8,0,0,0-.668,1.17L9.537,24.158c0,.476.331.709.694.331l3.107-2.729a.564.564,0,0,1,.8,0l6.12,6.007a.559.559,0,0,0,.922-.212L30.871.774a.564.564,0,0,0-.715-.74Z" transform="translate(238.33 299.769) rotate(-11)"/>
    </g>
    <g id="카카오톡" transform="translate(1436.248 350.284)">
      <path id="패스_580" data-name="패스 580" class="cls-5" d="M43.989,36C32.949,36,24,43.056,24,51.76c0,5.627,3.741,10.565,9.369,13.353-.306,1.056-1.968,6.793-2.034,7.244,0,0-.04.339.18.468a.6.6,0,0,0,.477.029c.629-.088,7.293-4.769,8.446-5.581a25.321,25.321,0,0,0,3.55.248c11.039,0,19.989-7.056,19.989-15.76S55.028,36,43.989,36Z" transform="translate(-24 -36)"/>
      <path id="패스_581" data-name="패스 581" class="cls-6" d="M53.334,103.711a1.129,1.129,0,0,1-1.153-1.1V95.758h-1.8a1.129,1.129,0,1,1,0-2.258h5.905a1.129,1.129,0,1,1,0,2.258h-1.8v6.851A1.129,1.129,0,0,1,53.334,103.711Zm10.112-.015a.946.946,0,0,1-.96-.509l-.571-1.495H58.4l-.571,1.5a.945.945,0,0,1-.959.509,1.759,1.759,0,0,1-.733-.159c-.318-.147-.623-.55-.273-1.638l2.758-7.26a1.607,1.607,0,0,1,3.074,0l2.757,7.257c.351,1.09.045,1.494-.273,1.64a1.764,1.764,0,0,1-.733.159h0Zm-2.137-4.047-1.152-3.272-1.152,3.272h2.3Zm5,3.894a1.083,1.083,0,0,1-1.105-1.057V94.653a1.177,1.177,0,0,1,2.354,0v6.775h2.451a1.058,1.058,0,1,1,0,2.114Zm6.407.153a1.154,1.154,0,0,1-1.153-1.153V94.653a1.153,1.153,0,1,1,2.306,0v2.479l3.217-3.217a.9.9,0,0,1,.64-.257,1.168,1.168,0,0,1,1.133,1.072.9.9,0,0,1-.254.7l-2.628,2.628,2.839,3.761a1.153,1.153,0,0,1-1.841,1.389l-2.7-3.583-.4.4v2.516a1.155,1.155,0,0,1-1.154,1.154Z" transform="translate(-44.397 -82.449)"/>
    </g>
    <g id="L_img" data-name="L img" transform="translate(1014.803 346.758)">
      <g id="coffee" transform="translate(0 215.698)">
        <path id="패스_561" data-name="패스 561" class="cls-7" d="M759.063,660.4a9.993,9.993,0,1,0,9.993,9.993A9.993,9.993,0,0,0,759.063,660.4Zm0,16.144a6.183,6.183,0,1,1,6.183-6.182A6.183,6.183,0,0,1,759.063,676.544Z" transform="translate(-720.591 -623.041)"/>
        <path id="패스_562" data-name="패스 562" class="cls-8" d="M759.063,660.4a9.993,9.993,0,1,0,9.993,9.993A9.993,9.993,0,0,0,759.063,660.4Zm0,16.144a6.183,6.183,0,1,1,6.183-6.182A6.183,6.183,0,0,1,759.063,676.544Z" transform="translate(-720.591 -623.041)"/>
        <path id="패스_563" data-name="패스 563" class="cls-5" d="M543.64,487.45h38.441V523a7.535,7.535,0,0,1-7.535,7.535h-23.37A7.535,7.535,0,0,1,543.64,523Z" transform="translate(-543.64 -457.781)"/>
        <path id="패스_564" data-name="패스 564" class="cls-9" d="M750.8,650.45V686a7.5,7.5,0,0,1-7.5,7.5h3.864a7.5,7.5,0,0,0,7.5-7.5V650.45Z" transform="translate(-719.28 -620.781)"/>
        <path id="패스_565" data-name="패스 565" class="cls-4" d="M721.458,613.072a2.242,2.242,0,0,0-1.7.866c-.5.912.41,1.948,1.244,2.574a16.849,16.849,0,0,1,4.212,3.918c1.051,1.6,1.376,3.864.232,5.41-1.492,2.025-5.062,2.465-5.41,4.954-.224,1.6,1.159,2.968,2.566,3.771,3.462,1.986,7.929,2.512,10.433,5.619,1.036-2.133,3.362-3.37,5.673-3.864s4.714-.487,7.064-.842a2.442,2.442,0,0,0,1.963-1.051c.657-1.329-1.213-2.929-.564-4.258.495-1.02,1.932-.935,2.983-1.345,1.716-.665,2.419-2.867,1.932-4.637a8.768,8.768,0,0,0-3.308-4.3c-3.864-3.091-8.578-4.861-13.316-6.183-2.2-.6-4.792-1.546-7.079-1.638S723.668,612.7,721.458,613.072Z" transform="translate(-713.9 -612.06)"/>
      </g>
      <g id="그룹_95" data-name="그룹 95" transform="translate(64.767 0)">
        <g id="점주" transform="translate(12.01)">
          <path id="Combined-Shape" class="cls-10" d="M4.543,92.526C-1.664,71.909-5.49,36.663,20.613,12.559,40.563-5.863,94.458-7.72,113.207,32.455c3.13,6.707-1.148,17.218-9.565,16.835-3.308-.151-5.357,10.331-7.27,16.835,2.678,26.4,26.54,26.888,38.644,47.062,14.922,24.87-3.444,61.6-47.445,61.6S18.346,138.366,4.543,92.526Z" transform="translate(18.796 0)"/>
          <path id="Rectangle" class="cls-11" d="M55.418,226.731Q49.806,237.444,47,276.471H204.638q-2.806-39.027-8.418-49.74-8.418-16.07-70.4-36.731Q63.835,210.661,55.418,226.731Z" transform="translate(-47 -74.135)"/>
          <path id="Mask" class="cls-12" d="M101.271,175.471q9.768,5.357,18.756,5.357A34.85,34.85,0,0,0,138,175.471V158.636a30.126,30.126,0,0,0,5.848.347c18.356,0,25.278-26.74,21.7-59.27-2.3,0-7.652,0-15.3-10.713,1.913,14.922-20.279,12.626-28.7.765,4.209,14.157-6.887,23.722-16.453,17.983-18.757-11.254-22.973,23.053-3.826,23.34Z" transform="translate(-40.817 -50.423)"/>
          <path id="Path-2" class="cls-13" d="M152.783,176.831A69.152,69.152,0,0,1,126,166.5q9.565,16.452,26.783,16.453Z" transform="translate(-55.598 -68.618)"/>
          <path id="Combined-Shape-2" data-name="Combined-Shape" class="cls-14" d="M141.054,203.755c-5.53-.25-18.34-2.959-18.34-8.812V190c-1.4,0-5.422,3.315-7.489,6.122-8.17,11.1.892,21.044,8.283,21.044,9.325,0,15.5-7.792,17.571-11.54,2.068,3.748,8.246,11.54,17.571,11.54,7.391,0,16.453-9.948,8.283-21.044-2.067-2.807-6.085-6.122-7.489-6.122v4.943c0,5.853-13.156,8.561-18.391,8.812Z" transform="translate(-62.26 -74.135)"/>
        </g>
        <g id="notebook" transform="translate(0 173.156)">
          <path id="패스_578" data-name="패스 578" class="cls-5" d="M7.673-8H174.45a7.673,7.673,0,0,1,7.673,7.673v100.37a7.673,7.673,0,0,1-7.673,7.673H7.673A7.673,7.673,0,0,1,0,100.043V-.327A7.673,7.673,0,0,1,7.673-8Z" transform="translate(0 8)"/>
          <ellipse id="타원_442" data-name="타원 442" class="cls-15" cx="6.713" cy="6.713" rx="6.713" ry="6.713" transform="translate(84.348 51.149)"/>
        </g>
      </g>
    </g>
    <g id="R_img" data-name="R img" transform="translate(969.556 246.949)">
      <g id="마스크_그룹_3" data-name="마스크 그룹 3" class="cls-16" transform="translate(0 27.952)">
        <g id="A-Human_Standing" data-name="A-Human/Standing" transform="translate(474.764 88.687)">
          <g id="Bottom_Standing_Skirt" data-name="Bottom/Standing/Skirt" transform="translate(27.377 178.854)">
            <path id="Skirt-Shadow" class="cls-17" d="M294.887,110.474q-64.255,17.972-110.875,17.972t-86.6-27.677q62.88-18.447,103.568-18.447T294.887,110.474Z" transform="translate(-97.408 73.316)"/>
            <path id="Skirt" class="cls-18" d="M256.135,3.8q-60.392-17.278-114.282,0C129.354,60.83,98.981,83.465,93.64,170.9c60.712,30.167,135.71-21.514,198.207,7.9C309.7,137.656,284.705,38.558,256.135,3.8Z" transform="translate(-93.64 4.838)"/>
          </g>
          <g id="Body_Long-Sleeve" data-name="Body/Long-Sleeve" transform="translate(0)">
            <path id="패스_606" data-name="패스 606" class="cls-19" d="M202.956,8.71S178.124,86.5,149.906,72.394c-29.912,34.991-47.407,46.278-47.407,46.278s69.418,97.636,120.211-62.081C249.8,23.293,202.956,8.71,202.956,8.71Z" transform="translate(-102.499 3.395)"/>
            <path id="Clothes" class="cls-20" d="M127.236.028,80.85,10.652c0,79.781-25.413,130.683-38.449,189.341H167.676c1.765,20.269,2.848,41.1,3.413,62.5h93.8Q233.007,92.847,130.3,0h-3.037Z" transform="translate(18.902)"/>
            <path id="Shade" class="cls-21" d="M102.54,48.259q4.843,74.572-5.7,113.819H122.3C118.808,121.926,112.64,83.986,102.54,48.259Z" transform="translate(64.275 37.915)"/>
          </g>
        </g>
      </g>
      <g id="Phone" transform="translate(450.539 134.98)">
        <path id="패스_468" data-name="패스 468" class="cls-5" d="M354.29,516.548l-.813.552a3.253,3.253,0,0,0,.844-4.6l-36.585-53a3.238,3.238,0,0,0-4.527-.829l.813-.568a5.233,5.233,0,0,0-1.335,7.274L347.016,515.2a5.248,5.248,0,0,0,7.274,1.35Z" transform="translate(-311.763 -456.78)"/>
        <path id="패스_469" data-name="패스 469" class="cls-4" d="M2.67,70.99h.752V0H2.67A2.67,2.67,0,0,0,0,2.67V68.3a2.67,2.67,0,0,0,2.67,2.67Z" transform="translate(44.338 58.463) rotate(145.44)"/>
        <rect id="사각형_64" data-name="사각형 64" class="cls-5" width="0.66" height="5.785" rx="0.17" transform="translate(10.003 14.042) rotate(145.44)"/>
      </g>
      <g id="A-Human_Standing-2" data-name="A-Human/Standing" transform="translate(461.445 0)">
        <g id="Head_" data-name="Head\" transform="translate(55.407 15.799) rotate(-7)">
          <path id="Combined-Shape-3" data-name="Combined-Shape" class="cls-18" d="M128.437,0,2.136,15.263Q-7.2,64.847,24.293,77.744C34,109.55,71.782,106.963,82.491,104.37Q137.155,91.134,128.437,0Z" transform="translate(129.636 105.793) rotate(180)"/>
          <path id="Mask-2" data-name="Mask" class="cls-22" d="M12.821,5.442V52.089c-19.452.291-15.658,34,3.887,23.712,3.5-1.555,12.439,2.721,9.329,13.217,20.991-15.549,50.242,11.74,52.089-5.053,3.635-33.05-3.4-60.214-22.047-60.216a30.61,30.61,0,0,0-5.941.353V5.442A35.405,35.405,0,0,0,31.877,0Q22.746,0,12.821,5.442Z" transform="translate(99.128 129.574) rotate(180)"/>
          <path id="Path-2-2" data-name="Path-2" class="cls-23" d="M25.31,4.963,25.3,0C13.643,0,6.478,4.608,0,15.751,7.774,10.568,14.944,6.777,25.31,4.963Z" transform="translate(74.308 110.423) rotate(180)"/>
        </g>
        <g id="Body_Long-Sleeve-2" data-name="Body/Long-Sleeve" transform="translate(0 116.639)">
          <path id="Skin" class="cls-22" d="M84.029,31.587l-39.2-.476c-14.1,7.845-26.644,10.051-38.49,12.828-3.332.1-10.717.1-2.817-6.481s17.563-11.985,16.154-15.5-8.753-2.207-9.971-7.613Q8.49,8.938,45.476,12.587L71.38,0Z" transform="matrix(0.407, 0.914, -0.914, 0.407, 40.158, 43.313)"/>
          <path id="패스_606-2" data-name="패스 606" class="cls-19" d="M202.292,7.192s-24.168,79.239-52.386,65.13C119.994,107.312,102.5,118.6,102.5,118.6s69.418,97.636,120.211-62.081C249.8,23.221,202.292,7.192,202.292,7.192Z" transform="translate(-89.18 3.467)"/>
          <path id="Clothes-2" data-name="Clothes" class="cls-20" d="M127.236.028,80.85,10.652c0,79.781-25.413,130.683-38.449,189.341l84.835-27.037c1.765,20.269,6.36-78.623,6.924-57.227L130.3,74.716C109.042-38.38,194,79.55,127.261,0Z" transform="translate(32.221)"/>
        </g>
      </g>
    </g>
  </g>
</svg>
