<svg xmlns="http://www.w3.org/2000/svg" width="17" height="18.6" viewBox="0 0 17 18.6">
  <g id="menu_sale" transform="translate(-308.954 -0.959)">
    <path id="Shape" d="M5.026,10.027A1.143,1.143,0,1,1,3.883,8.874,1.147,1.147,0,0,1,5.026,10.027Zm4.571,0A1.143,1.143,0,1,1,8.454,8.874,1.147,1.147,0,0,1,9.6,10.027Zm4.571,0a1.143,1.143,0,1,1-1.143-1.152A1.147,1.147,0,0,1,14.169,10.027Zm-9.143,4.61a1.143,1.143,0,1,1-1.143-1.152A1.147,1.147,0,0,1,5.026,14.636Zm4.571,0a1.143,1.143,0,1,1-1.143-1.152A1.147,1.147,0,0,1,9.6,14.636Zm4.571,0a1.143,1.143,0,1,1-1.143-1.152A1.147,1.147,0,0,1,14.169,14.636Zm.692,3.422H2.048A1.6,1.6,0,0,1,.454,16.452V2.065A1.6,1.6,0,0,1,2.048.458H14.861a1.6,1.6,0,0,1,1.593,1.606V16.452A1.6,1.6,0,0,1,14.861,18.058ZM13.407,6.569H3.5A.765.765,0,0,1,2.74,5.8V3.5A.765.765,0,0,1,3.5,2.728h9.9a.765.765,0,0,1,.762.768V5.8A.765.765,0,0,1,13.407,6.569Z" transform="translate(309 1)" fill="none" stroke="#fff" stroke-width="1" fill-rule="evenodd"/>
  </g>
</svg>
