<svg xmlns="http://www.w3.org/2000/svg" width="17" height="17" viewBox="0 0 17 17">
  <g id="menu_help" transform="translate(0.5 0.5)">
    <circle id="Oval" cx="8" cy="8" r="8" fill="none" stroke="#fff" stroke-linecap="round" stroke-linejoin="round" stroke-width="1"/>
    <path id="패스_633" data-name="패스 633" d="M.688-8.2a2.874,2.874,0,0,1,.942-1.989,3.07,3.07,0,0,1,2.111-.736,3.23,3.23,0,0,1,2.192.723,2.328,2.328,0,0,1,.836,1.841,2.461,2.461,0,0,1-.286,1.17,4.313,4.313,0,0,1-1.077,1.2,3.686,3.686,0,0,0-.97,1.044,3.341,3.341,0,0,0-.18,1.3H3.124A4.151,4.151,0,0,1,3.4-5.4,3.989,3.989,0,0,1,4.419-6.589a4.161,4.161,0,0,0,.922-.967,1.5,1.5,0,0,0,.18-.717A1.633,1.633,0,0,0,5.033-9.49a1.749,1.749,0,0,0-1.279-.479q-1.542,0-1.812,1.774Zm3.7,6.858H3.073V-2.655H4.39Z" transform="translate(4.312 13.92)" fill="#fff"/>
  </g>
</svg>
