<svg xmlns="http://www.w3.org/2000/svg" xmlns:xlink="http://www.w3.org/1999/xlink" width="65" height="65" viewBox="0 0 65 65">
  <defs>
    <style>
      .cls-1 {
        fill: url(#linear-gradient);
      }

      .cls-2 {
        clip-path: url(#clip-path);
      }

      .cls-3, .cls-6 {
        fill-rule: evenodd;
      }

      .cls-3 {
        fill: url(#linear-gradient-3);
      }

      .cls-4 {
        fill: url(#linear-gradient-4);
      }

      .cls-5 {
        fill: url(#linear-gradient-5);
      }

      .cls-6 {
        fill: #ffdbc9;
      }

      .cls-7 {
        fill: url(#linear-gradient-6);
      }
    </style>
    <linearGradient id="linear-gradient" x1="0.5" y1="1" x2="0.5" gradientUnits="objectBoundingBox">
      <stop offset="0" stop-color="#ffc9b3"/>
      <stop offset="1" stop-color="#ffd2c2"/>
    </linearGradient>
    <clipPath id="clip-path">
      <circle id="Mask" class="cls-1" cx="32.5" cy="32.5" r="32.5"/>
    </clipPath>
    <linearGradient id="linear-gradient-3" x1="0.5" x2="0.5" y2="1" gradientUnits="objectBoundingBox">
      <stop offset="0" stop-color="#e6864e"/>
      <stop offset="1" stop-color="#e67240"/>
    </linearGradient>
    <linearGradient id="linear-gradient-4" x1="0.5" x2="0.5" y2="1" gradientUnits="objectBoundingBox">
      <stop offset="0" stop-color="#1d0024"/>
      <stop offset="1" stop-color="#100014"/>
    </linearGradient>
    <linearGradient id="linear-gradient-5" x1="0.5" x2="0.5" y2="1" gradientUnits="objectBoundingBox">
      <stop offset="0" stop-color="#ffe0cc"/>
      <stop offset="1" stop-color="#ffeadb"/>
    </linearGradient>
    <linearGradient id="linear-gradient-6" x1="0.5" x2="0.5" y2="1" gradientUnits="objectBoundingBox">
      <stop offset="0" stop-color="#130027"/>
      <stop offset="1" stop-color="#130017"/>
    </linearGradient>
  </defs>
  <g id="Person_03" class="cls-2">
    <g id="그룹_99" data-name="그룹 99">
      <circle id="Mask-2" data-name="Mask" class="cls-1" cx="32.5" cy="32.5" r="32.5"/>
      <g id="Group-7" transform="translate(7.149 6.933)">
        <g id="그룹_10" data-name="그룹 10" transform="translate(0 0)">
          <path id="Combined-Shape" class="cls-3" d="M22.044.453C20.277,3.638,16.18,9.768,6.219,18.529c-15.031,13.22-.019,24.3,15.455,17.578,1.656-.719,6.4,1.763,10.61-1.175C35,33.037,33.869,31.666,34.9,30.22s5.208-1.51,5.994-5.2c.465-2.186-1.112-4.4-.969-6.042s1.673-3.164,1.673-5.32a6.934,6.934,0,0,0-6.929-6.939,6.974,6.974,0,0,0-6.95-6.7,6.89,6.89,0,0,0-3.3.837C23.361-.052,22.472-.318,22.044.453Z" transform="translate(41.575 39.562) rotate(-178)"/>
          <path id="Path-4" class="cls-4" d="M80.47,8.807C77.8,10.519,74.5,16.132,75.95,23.668c.316,1.644-.672,2.137-1.517.108C71.883,17.658,71.588,12.14,75.949,9.5c.759-.457,1.192-.087,1.734-.132C78.713,9.283,80.1,8.553,80.47,8.807Z" transform="translate(-57.069 -6.857)"/>
          <g id="Group-6" transform="translate(15.918 10.183)">
            <path id="Mask-3" data-name="Mask" class="cls-5" d="M4.477,24.917c0-1.95-.066-11.568-.063-11.731-5.354.789-5.245-9.394.171-6.9,1.192.758,4.55,0,4.225-6.283,5.85,6.283,12.642-1.045,13.224,4.927.8,8.154,0,16.688-5.072,16.689a9.5,9.5,0,0,1-1.652-.165v3.467q0,2.167,3.9,3.25-6.737,6.347-9.533,6.313t-9.1-6.313Q4.477,27.083,4.477,24.917Z" transform="translate(-0.46 0)"/>
            <path id="Path-2" class="cls-6" d="M.069,2.166A19.123,19.123,0,0,1,7.683,5.174Q5.654.67,0,0Z" transform="translate(14.844 23.617) rotate(-178)"/>
          </g>
          <g id="Combined-Shape-2" data-name="Combined-Shape" transform="translate(3.034 37.267)">
            <g id="그룹_9" data-name="그룹 9">
              <path id="Mask-4" data-name="Mask" class="cls-7" d="M42.25,7.583q1.572,3.493,2.383,14.083H0Q.811,11.076,2.383,7.583C3.76,4.523,12.835,1.01,15.494,0a8.694,8.694,0,0,0,6.822,2.817A8.694,8.694,0,0,0,29.139,0C31.8,1.01,40.873,4.523,42.25,7.583Z"/>
            </g>
          </g>
        </g>
      </g>
    </g>
  </g>
</svg>
