<svg version="1" xmlns="http://www.w3.org/2000/svg" width="346.667" height="346.667" viewBox="0 0 260.000000 260.000000"><path d="M29.5 8.2C15.4 13 7.4 20.8 3.5 33.6 1.3 41 1.3 219 3.5 226.4c3.9 13 12.3 21 26.6 25.5 5 1.6 194.8 1.6 199.8 0 14.3-4.5 22.7-12.5 26.6-25.5 2.2-7.4 2.2-185.4 0-192.8-3.9-13-12.3-21-26.6-25.5-4.7-1.5-196-1.4-200.4.1zm37.9 46.6c5.4 8.4 11.3 17.6 22.8 35.2 4.1 6.3 8 12.5 8.7 13.7.6 1.3 2 2.3 3.1 2.3 1.9 0 2-1 2.2-29.3l.3-29.2h16.6v89l-8.8.3c-4.8.1-9.3-.1-9.9-.5-.5-.5-3.5-4.6-6.5-9.3-3.1-4.7-7.3-11.2-9.5-14.5-2.1-3.3-4.1-6.5-4.4-7-.6-1.1-10.3-16.1-15.3-23.7-1.8-2.7-3.8-4.8-4.4-4.8-1 0-1.3 6.9-1.5 29.7l-.3 29.8H43.9L44 92V47.2c0-.1 4.2-.2 9.3-.2l9.2.1 4.9 7.7zm96.6 84.4c3.9 6.2 10.7 16.7 15 23.3 4.4 6.6 8.3 12.7 8.7 13.5 3.2 6 7.1 10.9 8.5 11 1.6 0 1.8-2.2 2-29.3l.3-29.2h17v89l-9.2.3-9.2.3-2.8-4c-1.5-2.2-7.3-11-12.8-19.6-19-29.7-23.7-36.6-24.9-36.2-.8.3-1.3 9.2-1.6 29.8l-.5 29.4h-16l-.3-44.8-.2-44.7h18.9l7.1 11.2z"/></svg>