<?xml version="1.0" standalone="no"?>
<!DOCTYPE svg PUBLIC "-//W3C//DTD SVG 20010904//EN"
 "http://www.w3.org/TR/2001/REC-SVG-20010904/DTD/svg10.dtd">
<svg version="1.0" xmlns="http://www.w3.org/2000/svg"
 width="512.000000pt" height="512.000000pt" viewBox="0 0 512.000000 512.000000"
 preserveAspectRatio="xMidYMid meet">
<metadata>
Created by potrace 1.11, written by Peter Selinger 2001-2013
</metadata>
<g transform="translate(0.000000,512.000000) scale(0.100000,-0.100000)"
fill="#000000" stroke="none">
<path d="M0 2560 l0 -2560 2560 0 2560 0 0 2560 0 2560 -2560 0 -2560 0 0
-2560z m1036 750 c393 -1165 457 -1351 464 -1343 4 4 140 404 303 888 162 484
298 888 302 898 6 15 22 17 125 17 l118 0 302 -906 c166 -498 306 -902 310
-897 5 4 144 409 310 898 166 490 305 893 309 898 4 4 93 6 197 5 l190 -3
-306 -870 c-168 -478 -359 -1022 -424 -1207 l-119 -338 -163 0 -162 0 -23 68
c-12 37 -97 288 -189 557 -91 270 -206 616 -255 770 -49 154 -91 284 -95 288
-4 4 -29 -61 -55 -145 -41 -127 -323 -968 -477 -1420 l-40 -118 -161 0 -162 0
-418 1203 c-229 661 -417 1205 -417 1210 0 4 86 6 191 5 l191 -3 154 -455z
m3450 81 c23 -10 54 -36 70 -57 25 -33 29 -46 29 -104 0 -54 -5 -73 -25 -103
-76 -111 -252 -102 -309 16 -49 100 -14 203 84 248 51 24 99 24 151 0z m3
-1335 c42 -22 89 -81 97 -121 16 -88 -24 -172 -100 -206 -138 -63 -280 53
-252 205 8 40 46 90 91 117 37 23 124 25 164 5z"/>
</g>
</svg>
