<svg id="그룹_7" data-name="그룹 7" xmlns="http://www.w3.org/2000/svg" width="40" height="40" viewBox="0 0 40 40">
  <rect id="사각형_1" data-name="사각형 1" width="40" height="40" rx="10" fill="#334150"/>
  <g id="그룹_6" data-name="그룹 6" transform="translate(3.831 11.622)">
    <g id="그룹_4" data-name="그룹 4" transform="translate(4 2)">
      <g id="그룹_1" data-name="그룹 1" transform="translate(0)">
        <g id="패스_1" data-name="패스 1" transform="translate(-672.4 -506.3)" fill="#fff">
          <path d="M 688.0360717773438 519.8026123046875 L 687.6912841796875 519.8026123046875 L 686.5021362304688 519.8026123046875 L 686.1533203125 519.8026123046875 L 686.0328979492188 519.4752197265625 L 683.8008422851562 513.4072875976562 L 683.7991333007812 513.4027709960938 L 683.797607421875 513.398193359375 L 682.4950561523438 509.634521484375 L 681.1956787109375 513.3607788085938 L 681.1942138671875 513.3650512695312 L 681.1926879882812 513.3692626953125 L 678.9397583007812 519.4757080078125 L 678.819091796875 519.8026123046875 L 678.4706420898438 519.8026123046875 L 677.3023681640625 519.8026123046875 L 676.95654296875 519.8026123046875 L 676.8345336914062 519.47900390625 L 671.9321899414062 506.4765319824219 L 671.6771240234375 505.8001403808594 L 672.4000244140625 505.8001403808594 L 673.54736328125 505.8001403808594 L 673.896728515625 505.8001403808594 L 674.016845703125 506.128173828125 L 677.8853149414062 516.6898803710938 L 681.7349853515625 506.1288452148438 L 681.8548583984375 505.8000793457031 L 682.2047729492188 505.8000793457031 L 682.8096923828125 505.8000793457031 L 683.1602172851562 505.8000793457031 L 683.2797241210938 506.1295776367188 L 687.110595703125 516.6898193359375 L 690.997802734375 506.1273803710938 L 691.1182861328125 505.8000793457031 L 691.467041015625 505.8000793457031 L 692.6353149414062 505.8000793457031 L 693.3603515625 505.8000793457031 L 693.1026611328125 506.477783203125 L 688.1586303710938 519.4803466796875 L 688.0360717773438 519.8026123046875 Z" stroke="none"/>
          <path d="M 682.2047729492188 506.300048828125 L 677.886474609375 518.146728515625 L 673.54736328125 506.3001708984375 L 672.4000244140625 506.3001708984375 L 677.3023681640625 519.3026123046875 L 678.4706420898438 519.3026123046875 L 680.7235717773438 513.1961669921875 L 682.496826171875 508.11083984375 L 684.2700805664062 513.2346801757812 L 686.5021362304688 519.3026123046875 L 687.6912841796875 519.3026123046875 L 692.6353149414062 506.300048828125 L 691.467041015625 506.300048828125 L 687.107177734375 518.146728515625 L 682.8096923828125 506.300048828125 L 682.2047729492188 506.300048828125 M 681.5049438476562 505.300048828125 L 682.2047729492188 505.300048828125 L 682.8096923828125 505.300048828125 L 683.5106811523438 505.300048828125 L 683.749755859375 505.9590454101562 L 687.1139526367188 515.2329711914062 L 690.528564453125 505.9546508789062 L 690.7694702148438 505.300048828125 L 691.467041015625 505.300048828125 L 692.6353149414062 505.300048828125 L 694.0853881835938 505.300048828125 L 693.5700073242188 506.6554565429688 L 688.6259765625 519.6580200195312 L 688.3809204101562 520.3026123046875 L 687.6912841796875 520.3026123046875 L 686.5021362304688 520.3026123046875 L 685.8045043945312 520.3026123046875 L 685.5635986328125 519.6478271484375 L 683.33154296875 513.5798950195312 L 683.3282470703125 513.5708618164062 L 683.3250732421875 513.5617065429688 L 682.4932861328125 511.158203125 L 681.6677856445312 513.5254516601562 L 681.6648559570312 513.5338745117188 L 681.6617431640625 513.5422973632812 L 679.4088134765625 519.6487426757812 L 679.1676025390625 520.3026123046875 L 678.4706420898438 520.3026123046875 L 677.3023681640625 520.3026123046875 L 676.6107177734375 520.3026123046875 L 676.36669921875 519.6553955078125 L 671.4642944335938 506.6529541015625 L 670.9542846679688 505.3001708984375 L 672.4000244140625 505.3001708984375 L 673.54736328125 505.3001708984375 L 674.2460327148438 505.3001708984375 L 674.486328125 505.9562377929688 L 677.8842163085938 515.2330322265625 L 681.2652587890625 505.9575805664062 L 681.5049438476562 505.300048828125 Z" stroke="none" fill="#fff"/>
        </g>
      </g>
    </g>
    <g id="그룹_3" data-name="그룹 3" transform="translate(27.78 3.033)">
      <g id="타원_1" data-name="타원 1" transform="translate(0)" fill="#fff" stroke="#fff" stroke-width="1">
        <ellipse cx="0.598" cy="0.598" rx="0.598" ry="0.598" stroke="none"/>
        <ellipse cx="0.598" cy="0.598" rx="1.098" ry="1.098" fill="none"/>
      </g>
      <g id="타원_2" data-name="타원 2" transform="translate(0 9.277)" fill="#fff" stroke="#fff" stroke-width="1">
        <ellipse cx="0.598" cy="0.598" rx="0.598" ry="0.598" stroke="none"/>
        <ellipse cx="0.598" cy="0.598" rx="1.098" ry="1.098" fill="none"/>
      </g>
    </g>
  </g>
</svg>
