<svg xmlns="http://www.w3.org/2000/svg" width="139" height="16.795" viewBox="0 0 139 16.795">
  <defs>
    <style>
      .cls-1 {
        fill: #334150;
      }
    </style>
  </defs>
  <g id="washow_BI" data-name="washow BI" transform="translate(-672.4 -505.2)">
    <g id="그룹_1" data-name="그룹 1" transform="translate(672.4 505.466)">
      <path id="패스_1" data-name="패스 1" class="cls-1" d="M683.758,506.3h.7l4.978,14.862,5.051-14.862h1.353l-5.727,16.312h-1.377L686.15,515l-2.054-6.428-2.054,6.38-2.61,7.661h-1.353L672.4,506.3h1.329l5.026,14.862Z" transform="translate(-672.4 -506.3)"/>
      <path id="패스_2" data-name="패스 2" class="cls-1" d="M789.82,522.563l-1.788-3.987h-9.715l-1.764,3.987H775.2l7.3-16.263h1.377l7.3,16.263Zm-2.271-5.147-4.374-9.884-4.374,9.884Z" transform="translate(-750.358 -506.3)"/>
    </g>
    <g id="그룹_2" data-name="그룹 2" transform="translate(727.957 505.2)">
      <path id="패스_3" data-name="패스 3" class="cls-1" d="M913.9,508.759c-1.184-1.909-3.093-2.175-4.93-2.2-1.909,0-4.93.7-4.93,3.286,0,2.054,2.223,2.562,4.978,3.069,3.142.6,6.38,1.16,6.38,4.664-.024,3.673-3.721,4.543-6.428,4.543-2.537,0-5.413-1.039-6.67-3.528l1.112-.556c.991,1.982,3.552,2.948,5.558,2.948s5.172-.556,5.172-3.432c.024-2.441-2.658-2.972-5.341-3.48-2.972-.58-6.017-1.184-6.017-4.181-.073-3.432,3.5-4.495,6.186-4.495,2.32,0,4.35.362,5.945,2.755Z" transform="translate(-902.3 -505.352)"/>
      <path id="패스_4" data-name="패스 4" class="cls-1" d="M994.6,522.563v-7.395H984.232v7.395H983V506.3h1.257v7.733h10.367V506.3h1.257v16.263Z" transform="translate(-963.498 -506.034)"/>
      <path id="패스_5" data-name="패스 5" class="cls-1" d="M1079.984,513.61c-.024,4.277-2.731,8.385-8.192,8.385s-8.192-4.132-8.192-8.434c0-4.374,2.706-8.361,8.192-8.361S1080.008,509.236,1079.984,513.61Zm-15.176,0c.024,3.673,2.344,7.25,6.96,7.25,4.64,0,6.984-3.576,6.984-7.25,0-3.77-2.32-7.225-6.984-7.225S1064.784,509.767,1064.808,513.61Z" transform="translate(-1024.621 -505.2)"/>
      <path id="패스_6" data-name="패스 6" class="cls-1" d="M1162.034,506.3h.7l4.978,14.862,5.051-14.862h1.353l-5.727,16.312h-1.353L1164.45,515l-2.054-6.428-2.054,6.38-2.61,7.661h-1.353L1150.7,506.3h1.329l5.026,14.862Z" transform="translate(-1090.673 -506.034)"/>
    </g>
    <circle id="타원_1" data-name="타원 1" class="cls-1" cx="0.749" cy="0.749" r="0.749" transform="translate(719.764 507.182)"/>
    <circle id="타원_2" data-name="타원 2" class="cls-1" cx="0.749" cy="0.749" r="0.749" transform="translate(719.764 518.805)"/>
  </g>
</svg>
